<svg width="40" height="39" viewBox="0 0 40 39" fill="none" xmlns="http://www.w3.org/2000/svg">
<g filter="url(#filter0_d_324_33)">
<path fill-rule="evenodd" clip-rule="evenodd" d="M12.3463 10.3334C10.1386 10.3334 8.33301 12.139 8.33301 14.3467V18.4477C9.05655 18.1594 9.84415 18 10.6663 18C14.1653 18 16.9997 20.8344 16.9997 24.3334C16.9997 25.4102 16.7261 26.4383 16.2355 27.3334H27.653C29.8607 27.3334 31.6663 25.5277 31.6663 23.32V22.7334H30.133C28.2536 22.7334 26.4294 21.3591 26.257 19.329C26.1493 18.1794 26.587 17.1054 27.3454 16.36C28.0276 15.6642 28.9628 15.2667 29.973 15.2667H31.6663V14.3467C31.6663 12.139 29.8607 10.3334 27.653 10.3334H12.3463ZM6.33301 14.3467C6.33301 11.0344 9.03404 8.33337 12.3463 8.33337H27.653C30.9653 8.33337 33.6663 11.0344 33.6663 14.3467V16.2667C33.6663 16.819 33.2186 17.2667 32.6663 17.2667H29.973C29.4943 17.2667 29.0732 17.4523 28.7695 17.7643L28.7515 17.7823C28.3968 18.1286 28.1986 18.6216 28.2485 19.1452L28.2496 19.157L28.2496 19.157C28.3201 20.0036 29.1342 20.7334 30.133 20.7334H32.6663C33.2186 20.7334 33.6663 21.1811 33.6663 21.7334V23.32C33.6663 26.6323 30.9653 29.3334 27.653 29.3334H14.173C13.7526 29.3334 13.377 29.0704 13.2333 28.6753C13.0895 28.2802 13.2083 27.8374 13.5304 27.5672C13.8543 27.2955 14.1399 26.9579 14.3626 26.5762L14.3752 26.5551C14.7723 25.9111 14.9997 25.1459 14.9997 24.3334C14.9997 21.939 13.0607 20 10.6663 20C9.65096 20 8.70843 20.3558 7.95632 20.9554C7.65598 21.1948 7.24505 21.241 6.89902 21.0743C6.55299 20.9076 6.33301 20.5575 6.33301 20.1734V14.3467Z" fill="#A4A4A4"/>
<path fill-rule="evenodd" clip-rule="evenodd" d="M22.7997 4.26675C22.7997 3.19006 21.7236 2.45088 20.7274 2.82847L10.1402 6.82867C9.05121 7.24094 8.33301 8.28069 8.33301 9.45344V15.5467C8.33301 16.099 7.88529 16.5467 7.33301 16.5467C6.78072 16.5467 6.33301 16.099 6.33301 15.5467V9.45344C6.33301 7.45302 7.56172 5.66594 9.43244 4.9581L20.0186 0.958298C22.3291 0.082551 24.7997 1.79678 24.7997 4.26675V9.33341C24.7997 9.88569 24.352 10.3334 23.7997 10.3334C23.2474 10.3334 22.7997 9.88569 22.7997 9.33341V4.26675Z" fill="#A4A4A4"/>
<path fill-rule="evenodd" clip-rule="evenodd" d="M29.9714 17.267C29.4927 17.267 29.0716 17.4526 28.7679 17.7646L28.7499 17.7825C28.3952 18.1288 28.197 18.6218 28.2469 19.1455L28.248 19.1572L28.248 19.1572C28.3185 20.0039 29.1326 20.7336 30.1314 20.7336H32.7218C32.9373 20.7197 33.0781 20.5512 33.0781 20.3737V17.6269C33.0781 17.4494 32.9373 17.2809 32.7218 17.267H29.9714ZM27.3438 16.3602C28.026 15.6645 28.9612 15.267 29.9714 15.267H32.7447C32.7566 15.267 32.7685 15.2672 32.7804 15.2676C34.0511 15.313 35.0781 16.3412 35.0781 17.6269V20.3737C35.0781 21.6594 34.0511 22.6876 32.7804 22.733C32.7685 22.7334 32.7566 22.7336 32.7447 22.7336H30.1314C28.252 22.7336 26.4278 21.3593 26.2554 19.3292C26.1477 18.1796 26.5854 17.1057 27.3438 16.3602Z" fill="#A4A4A4"/>
<path fill-rule="evenodd" clip-rule="evenodd" d="M12.333 15.0001C12.333 14.4478 12.7807 14.0001 13.333 14.0001H22.6663C23.2186 14.0001 23.6663 14.4478 23.6663 15.0001C23.6663 15.5523 23.2186 16.0001 22.6663 16.0001H13.333C12.7807 16.0001 12.333 15.5523 12.333 15.0001Z" fill="#A4A4A4"/>
<path fill-rule="evenodd" clip-rule="evenodd" d="M10.6663 20.0001C9.65096 20.0001 8.70843 20.3559 7.95632 20.9554L7.95458 20.9568L7.95458 20.9568C6.96101 21.7451 6.33301 22.9661 6.33301 24.3334C6.33301 25.1459 6.56037 25.9111 6.95751 26.5552L6.9659 26.5688L6.96579 26.5688C7.71221 27.8237 9.08517 28.6667 10.6663 28.6667C11.7633 28.6667 12.7523 28.2667 13.504 27.5901C13.5127 27.5823 13.5215 27.5747 13.5304 27.5672C13.8543 27.2955 14.1399 26.9579 14.3626 26.5762L14.3752 26.5552C14.7723 25.9111 14.9997 25.1459 14.9997 24.3334C14.9997 21.939 13.0607 20.0001 10.6663 20.0001ZM6.71056 19.3907C7.79832 18.524 9.17545 18.0001 10.6663 18.0001C14.1653 18.0001 16.9997 20.8344 16.9997 24.3334C16.9997 25.5166 16.6694 26.6408 16.0839 27.5946C15.7505 28.1633 15.323 28.6713 14.8291 29.0883C13.7157 30.0846 12.2566 30.6667 10.6663 30.6667C8.35705 30.6667 6.34549 29.4329 5.25098 27.5981C4.66408 26.6436 4.33301 25.5181 4.33301 24.3334C4.33301 22.3411 5.25131 20.549 6.71056 19.3907Z" fill="#A4A4A4"/>
<path fill-rule="evenodd" clip-rule="evenodd" d="M13.482 22.3471C13.857 22.7525 13.8323 23.3852 13.4269 23.7602L10.5869 26.3868C10.1925 26.7515 9.58056 26.7396 9.20077 26.3598L7.88078 25.0398C7.49026 24.6493 7.49026 24.0161 7.88078 23.6256C8.27131 23.2351 8.90447 23.2351 9.295 23.6256L9.93494 24.2655L12.0689 22.2919C12.4744 21.9169 13.107 21.9416 13.482 22.3471Z" fill="#A4A4A4"/>
</g>
<defs>
<filter id="filter0_d_324_33" x="0.333008" y="0.72644" width="38.7451" height="37.9403" filterUnits="userSpaceOnUse" color-interpolation-filters="sRGB">
<feFlood flood-opacity="0" result="BackgroundImageFix"/>
<feColorMatrix in="SourceAlpha" type="matrix" values="0 0 0 0 0 0 0 0 0 0 0 0 0 0 0 0 0 0 127 0" result="hardAlpha"/>
<feOffset dy="4"/>
<feGaussianBlur stdDeviation="2"/>
<feComposite in2="hardAlpha" operator="out"/>
<feColorMatrix type="matrix" values="0 0 0 0 0 0 0 0 0 0 0 0 0 0 0 0 0 0 0.25 0"/>
<feBlend mode="normal" in2="BackgroundImageFix" result="effect1_dropShadow_324_33"/>
<feBlend mode="normal" in="SourceGraphic" in2="effect1_dropShadow_324_33" result="shape"/>
</filter>
</defs>
</svg>
